# xmcd
#
# Track frame offsets:
#	150
#	12488
#	24918
#	39161
#	51053
#	69303
#	79888
#	94828
#	116418
#	130588
#	144092
#	154119
#	168957
#	181622
#	197965
#
# Disc length: 2801 seconds
#
# Revision: 0
# Processed by: cddbd v1.5.2PL0 Copyright (c) Steve Scherf et al.
# Submitted via: EasyCDDAExtractor 16.0.8.2
#
DISCID=b00aef0f
DTITLE=Συλλογικός δίσκος - Θέλω τα ώπα μου! 1
DYEAR=2014
DGENRE=Λαϊκή
TTITLE0=Σακελλαρίου Ρίτα - Θέλω να κάνω ταραχή [Αλ. Χρυσοβέργης-Μάρω Μπιζάνη]
TTITLE1=Δούκισσα - Αλήτη μου [Τάκης Μουσαφίρης]
TTITLE2=Κοντολάζος Δημήτρης - Δεν το παίζω τρελλός [Τάκης Μουσαφίρης]
TTITLE3=Σακελλαρίου Ρίτα - Έλα μιά νύχτα [Τάκης Μουσαφίρης]
TTITLE4=Στανίση Κατερίνα - Αναστατώνομαι [Ν. Καρβέλας]
TTITLE5=Δούκισσα - Έτσι ε - [Τάκης Μουσαφίρης]
TTITLE6=Σακελλαρίου Ρίτα - Αρέσω [Ν. Καρβέλας]
TTITLE7=Κοντολάζος Δημήτρης - Δεν μ' αγαπάς [Ν. Καρβέλας]
TTITLE8=Μαζωνάκης Γιώργος - Ζηλεύω [Τάκης Μπουγάς-Π. Φαλάρας]
TTITLE9=Στανίση Κατερίνα - Πήγα σε μάγισσες [Χρ. Νικολόπουλος-Λ. Χαψιάδης]
TTITLE10=Δούκισσα - Έλα, έλα [Σπ. Παπαβασιλείου-Μάρω Μπιζάνη]
TTITLE11=Σακελλαρίου Ρίτα - Παντρεμένοι κι οι δυό [Μ. Χριστοδουλόπουλος]
TTITLE12=Δούκισσα - Το καφενείο [Τάκης Μουσαφίρης]
TTITLE13=Κοντολάζος Δημήτρης - Ταχυπαλμία [Ν. Καρβέλας]
TTITLE14=Περπινιάδης Βαγγέλης - Ούτε τα λεφτά σου, ούτε τα καλά σου[Μ.Μπακάλης
TTITLE14=Δ.Γκούτης]
EXTD=
EXTT0=
EXTT1=
EXTT2=
EXTT3=
EXTT4=
EXTT5=
EXTT6=
EXTT7=
EXTT8=
EXTT9=
EXTT10=
EXTT11=
EXTT12=
EXTT13=
EXTT14=
PLAYORDER=
